# Blender 3.1.0
# www.blender.org
mtllib Rock2.mtl
o Cube
v 0.672712 0.797420 -0.681599
v 1.000000 -1.000000 -1.000000
v 0.805849 0.710470 0.559203
v 1.000000 -1.000000 1.000000
v -0.312516 0.787744 -0.789711
v -1.000000 -1.000000 -1.000000
v -0.296495 0.871183 0.532253
v -1.000000 -1.000000 1.000000
v -1.000000 -1.000000 0.000000
v 0.669784 0.995160 0.085119
v -0.510162 0.836763 -0.120452
v 1.000000 -1.000000 0.000000
v 0.000000 -1.000000 -1.000000
v 0.142373 0.995620 0.341558
v 0.001916 -0.998716 0.997992
v 0.072259 0.679199 -0.934115
v 0.000000 -1.000000 0.000000
v 0.081950 1.054941 -0.085891
v 0.929222 0.322312 -1.066879
v -0.943021 0.027553 0.959129
v 0.792311 0.094582 0.777021
v -0.684835 0.172936 -0.877735
v 1.014363 0.009629 -0.015053
v -0.941302 0.241670 -0.215657
v 0.327723 0.202353 -1.319415
v 0.081950 0.054941 0.914109
vn -0.3004 0.9487 0.0981
vn 0.0949 0.4576 0.8841
vn -0.7691 0.5580 -0.3117
vn -0.0006 -1.0000 0.0006
vn 0.9730 0.2084 0.0990
vn 0.1690 0.6734 -0.7197
vn 0.9226 0.3854 -0.0173
vn -0.0000 -1.0000 -0.0000
vn -0.7744 0.6147 0.1502
vn -0.1383 0.9491 -0.2828
vn 0.0728 0.9397 -0.3340
vn -0.3341 0.4048 -0.8512
vn 0.0006 -1.0000 0.0006
vn 0.0284 0.4515 0.8918
vn 0.1574 0.9336 0.3219
vn 0.0747 0.1454 0.9866
vn -0.2140 -0.0231 -0.9766
vn -0.9987 0.0514 0.0043
vn 0.9990 0.0228 -0.0380
vn 0.1657 -0.1656 -0.9722
vn 0.9876 0.1040 0.1174
vn -0.9769 0.1452 -0.1567
vn 0.0223 0.0584 0.9980
vt 0.625000 0.500000
vt 0.375000 0.500000
vt 0.625000 0.750000
vt 0.375000 0.750000
vt 0.875000 0.500000
vt 0.625000 0.250000
vt 0.125000 0.500000
vt 0.375000 0.250000
vt 0.875000 0.750000
vt 0.625000 1.000000
vt 0.625000 0.000000
vt 0.125000 0.750000
vt 0.375000 0.000000
vt 0.375000 1.000000
vt 0.125000 0.625000
vt 0.375000 0.125000
vt 0.625000 0.625000
vt 0.625000 0.125000
vt 0.875000 0.625000
vt 0.375000 0.625000
vt 0.250000 0.500000
vt 0.375000 0.375000
vt 0.625000 0.875000
vt 0.750000 0.750000
vt 0.250000 0.750000
vt 0.375000 0.875000
vt 0.750000 0.500000
vt 0.625000 0.375000
vt 0.250000 0.625000
vt 0.750000 0.625000
vt 0.500000 0.500000
vt 0.500000 0.000000
vt 0.500000 1.000000
vt 0.500000 0.750000
vt 0.500000 0.250000
vt 0.500000 0.625000
vt 0.500000 0.125000
vt 0.500000 0.375000
vt 0.500000 0.875000
s 0
usemtl Material
f 18/30/1 11/19/1 7/9/1 14/24/1
f 26/39/2 14/23/2 7/10/2 20/33/2
f 24/37/3 11/18/3 5/6/3 22/35/3
f 17/29/4 12/20/4 4/4/4 15/25/4
f 23/36/5 10/17/5 3/3/5 21/34/5
f 25/38/6 16/28/6 1/1/6 19/31/6
f 19/31/7 1/1/7 10/17/7 23/36/7
f 13/21/8 2/2/8 12/20/8 17/29/8
f 20/32/9 7/11/9 11/18/9 24/37/9
f 16/27/10 5/5/10 11/19/10 18/30/10
f 1/1/11 16/27/11 18/30/11 10/17/11
f 6/7/8 13/21/8 17/29/8 9/15/8
f 22/35/12 5/6/12 16/28/12 25/38/12
f 9/15/13 17/29/13 15/25/13 8/12/13
f 21/34/14 3/3/14 14/23/14 26/39/14
f 10/17/15 18/30/15 14/24/15 3/3/15
f 4/4/16 21/34/16 26/39/16 15/26/16
f 6/8/17 22/35/17 25/38/17 13/22/17
f 8/13/18 20/32/18 24/37/18 9/16/18
f 2/2/19 19/31/19 23/36/19 12/20/19
f 13/22/20 25/38/20 19/31/20 2/2/20
f 12/20/21 23/36/21 21/34/21 4/4/21
f 9/16/22 24/37/22 22/35/22 6/8/22
f 15/26/23 26/39/23 20/33/23 8/14/23
