# Blender v3.1.2 OBJ File: ''
# www.blender.org
mtllib Stump_3.mtl
o Cylinder_Cylinder.001
v 0.633403 2.690454 1.069332
v -0.002020 2.655586 1.494547
v 0.119323 -0.017347 -0.899191
v -0.391615 2.634207 1.494547
v -1.027038 2.599339 1.069332
v 0.544538 -0.017347 -0.262812
v -1.176129 2.591157 0.318671
v -0.751553 2.614456 -0.317708
v 0.395223 -0.017347 0.487849
v 0.357918 2.675337 -0.317708
v 0.782495 2.698636 0.318671
v -0.241157 -0.017347 0.913064
v -0.631337 -0.017347 0.913064
v -0.792605 1.488893 -0.317708
v -1.213481 1.428306 0.318671
v -1.267716 -0.017347 0.487849
v -1.065689 1.449582 1.069332
v -0.435803 1.540256 1.494547
v -1.417032 -0.017347 -0.262812
v -0.049603 1.595850 1.494547
v 0.580283 1.686524 1.069332
v -0.991817 -0.017347 -0.899191
v 0.307199 1.647213 -0.317708
v 0.728076 1.707800 0.318671
v -0.810786 3.676118 1.141368
v -0.421192 3.697496 1.141368
v 0.214231 3.732365 0.716153
v 0.363323 3.740546 -0.034507
v -1.595301 3.633068 -0.034507
v -1.446210 3.641249 0.716153
v -0.061254 3.717248 -0.670887
v -1.170725 3.656366 -0.670887
vt 0.383337 0.449553
vt 0.116663 0.449553
vt 0.116663 0.449553
vt 0.383337 0.449553
vt 0.203178 0.014612
vt 0.296822 0.014612
vt 0.296822 0.014612
vt 0.203178 0.014612
vt 0.383337 0.449553
vt 0.116663 0.449553
vt 0.449553 0.116663
vt 0.485388 0.296822
vt 0.485388 0.296822
vt 0.449553 0.116663
vt 0.485388 0.296822
vt 0.014612 0.296822
vt 0.050447 0.116663
vt 0.050447 0.116663
vt 0.014612 0.296822
vt 0.296822 0.014612
vt 0.449553 0.116663
vt 0.050447 0.116663
vt 0.203178 0.014612
vt 0.014612 0.296822
vt 0.116663 0.449553
vt 0.383337 0.449553
vt 0.014612 0.296822
vt 0.050447 0.116663
vt 0.203178 0.014612
vt 0.296822 0.014612
vt 0.449553 0.116663
vt 0.485388 0.296822
vn -0.0000 0.0000 -1.0000
vn 0.0000 0.0000 1.0000
vn -0.0248 0.3469 -0.9376
vn 0.9798 -0.0528 0.1927
vn 0.8264 0.0996 -0.5541
vn -0.9806 0.0322 0.1933
vn 0.5422 -0.3322 0.7718
vn -0.5287 -0.2432 0.8132
vn -0.9794 0.0593 0.1930
vn -0.7980 0.3120 -0.5156
vn 0.0248 -0.3469 0.9376
vn 0.5595 -0.0273 0.8284
vn 0.0173 -0.3147 -0.9490
vn -0.5591 0.0206 0.8288
vn 0.0000 -1.0000 -0.0000
vn -0.8335 0.0286 -0.5518
vn 0.9675 -0.1681 0.1891
vn 0.8335 -0.0434 -0.5508
vn -0.0548 0.9985 0.0000
vn -0.9316 -0.3109 0.1884
vn 0.8209 0.1428 -0.5529
vn 0.4799 0.4486 0.7539
vn 0.8896 0.4193 0.1812
vn -0.0173 0.3147 0.9490
vn -0.7290 -0.4639 -0.5034
vn -0.5574 0.0565 0.8283
usemtl None
s off
f 23/1/1 14/2/1 8/3/1 10/4/1
f 18/5/2 20/6/2 2/7/2 4/8/2
f 3/9/3 22/10/3 14/2/3 23/1/3
f 21/11/4 24/12/4 11/13/4 1/14/4
f 6/15/5 3/9/5 23/1/5 24/12/5
f 15/16/6 17/17/6 5/18/6 7/19/6
f 12/20/7 9/21/7 21/11/7 20/6/7
f 16/22/8 13/23/8 18/5/8 17/17/8
f 19/24/9 16/22/9 17/17/9 15/16/9
f 22/10/10 19/24/10 15/16/10 14/2/10
f 13/23/11 12/20/11 20/6/11 18/5/11
f 20/6/12 21/11/12 1/14/12 2/7/12
f 10/4/13 8/3/13 32/25/13 31/26/13
f 17/17/14 18/5/14 4/8/14 5/18/14
f 6/15/15 9/21/15 12/20/15 13/23/15 16/22/15 19/24/15 22/10/15 3/9/15
f 14/2/16 15/16/16 7/19/16 8/3/16
f 9/21/17 6/15/17 24/12/17 21/11/17
f 24/12/18 23/1/18 10/4/18 11/13/18
f 32/25/19 29/27/19 30/28/19 25/29/19 26/30/19 27/31/19 28/32/19 31/26/19
f 7/19/20 5/18/20 30/28/20 29/27/20
f 11/13/21 10/4/21 31/26/21 28/32/21
f 2/7/22 1/14/22 27/31/22 26/30/22
f 1/14/23 11/13/23 28/32/23 27/31/23
f 4/8/24 2/7/24 26/30/24 25/29/24
f 8/3/25 7/19/25 29/27/25 32/25/25
f 5/18/26 4/8/26 25/29/26 30/28/26
