# Blender v3.1.2 OBJ File: ''
# www.blender.org
mtllib Cactus.mtl
o Cylinder
v 0.000000 -1.395476 -0.558429
v 0.362482 4.172903 -1.553548
v 0.362482 3.426713 -1.553548
v 0.117428 3.304108 0.633839
v 0.500476 3.304108 0.377894
v -0.362482 3.426713 -1.553548
v -0.362482 4.172903 -1.553548
v 0.334407 0.827615 -0.456988
v 0.425619 -1.395476 -0.382132
v 0.362482 4.172903 -2.274920
v -0.362482 4.172903 -2.274920
v -0.334407 3.304108 -0.456988
v -0.590351 3.304108 -0.073941
v 0.278196 3.829819 -2.260900
v -0.280749 3.829819 -2.260900
v 0.590351 0.827615 -0.073941
v 0.601917 -1.395476 0.043487
v -0.117428 2.676622 0.633839
v -0.500475 2.676622 0.377895
v 0.590351 3.304108 -0.073941
v 0.334407 3.304108 -0.456988
v 0.590351 2.676622 -0.073941
v -0.334407 2.676622 -0.456988
v 0.500476 0.827615 0.377894
v 0.425619 -1.395476 0.469107
v 0.334407 2.676622 -0.456988
v 0.117428 2.676622 0.633839
v -0.500475 3.304108 0.377895
v -0.117428 3.304108 0.633839
v -0.590351 2.676622 -0.073941
v 0.500476 2.676622 0.377894
v 0.117428 0.827615 0.633839
v -0.000000 -1.395476 0.645404
v 0.117428 2.049135 0.633839
v -0.334407 2.049135 -0.456988
v -0.117428 0.827615 0.633839
v -0.199556 5.780602 -0.224234
v 0.590351 2.049135 -0.073941
v -0.500475 2.049135 0.377895
v -0.352290 5.780602 0.004348
v -0.425619 -1.395476 0.469107
v -0.117428 2.049135 0.633839
v 0.334407 2.049135 -0.456988
v -0.500475 0.827615 0.377895
v -0.298657 5.780602 0.273979
v -0.590351 2.049135 -0.073941
v 0.500476 2.049135 0.377894
v -0.070075 5.780602 0.426712
v -0.601917 -1.395476 0.043487
v 0.500476 4.575352 0.377894
v -0.590351 4.575352 -0.073941
v -0.590351 0.827615 -0.073941
v 0.070075 5.780602 0.426712
v 0.426724 4.038602 -0.536673
v -0.117428 4.575352 0.633839
v 0.298657 5.780602 0.273979
v -0.425620 -1.395476 -0.382132
v -0.500475 4.575352 0.377895
v 0.590351 4.575352 -0.073941
v -0.334407 0.827615 -0.456988
v 0.199556 5.780602 -0.224234
v -0.242090 4.038602 -0.536673
v 0.117428 4.575352 0.633839
v 0.352290 5.780602 0.004348
v -0.192568 6.189925 -2.105848
v 0.192568 6.189925 -2.105848
v -0.192568 6.189925 -1.722620
v 0.192568 6.189925 -1.722620
v 0.192626 2.449071 1.943935
v -0.169621 2.449071 1.943935
v 0.226618 2.878346 1.912845
v -0.226618 2.878346 1.912845
v 0.246060 2.057817 1.147155
v -0.246060 2.057817 1.147155
v -0.281619 2.757222 1.353013
v 0.171618 2.757222 1.353013
v 0.085248 5.408442 1.683839
v -0.085248 5.408442 1.683839
v -0.085248 5.408442 1.407653
v 0.085248 5.408442 1.407653
v -0.460566 3.325758 -0.888710
v 0.460566 3.325758 -0.888710
v 0.334562 3.906485 -0.951473
v -0.586571 3.906485 -0.951473
vt 0.750000 0.490000
vt 0.116663 0.449553
vt 0.383337 0.449553
vt 0.485388 0.296822
vt 0.875000 0.500000
vt 0.990000 0.250000
vt 0.449553 0.116663
vt 0.485388 0.296822
vt 0.485388 0.296822
vt 0.449553 0.116663
vt 0.383337 0.449553
vt 0.116663 0.449553
vt 0.116663 0.449553
vt 0.383337 0.449553
vt 0.449553 0.116663
vt 0.750000 0.500000
vt 0.919706 0.080294
vt 0.296822 0.014612
vt 0.449553 0.116663
vt 0.449553 0.116663
vt 0.296822 0.014612
vt 0.296822 0.014612
vt 0.625000 0.500000
vt 0.750000 0.010000
vt 0.014612 0.296822
vt 0.050447 0.116663
vt 0.050447 0.116663
vt 0.014612 0.296822
vt 0.203178 0.014612
vt 0.500000 0.500000
vt 0.050447 0.116663
vt 0.203178 0.014612
vt 0.203178 0.014612
vt 0.050447 0.116663
vt 0.580294 0.080294
vt 0.050447 0.116663
vt 0.383337 0.449553
vt 0.116663 0.449553
vt 0.116663 0.449553
vt 0.383337 0.449553
vt 0.203178 0.014612
vt 0.203178 0.014612
vt 0.375000 0.500000
vt 0.510000 0.250000
vt 0.014612 0.296822
vt 0.485388 0.296822
vt 0.485388 0.296822
vt 0.250000 0.500000
vt 0.580294 0.419706
vt 0.919706 0.419706
vt 0.125000 0.500000
vt 0.014612 0.296822
vt 0.014612 0.296822
vt 0.296822 0.014612
vt 0.296822 0.014612
vt 1.000000 0.500000
vt 0.116663 0.449553
vt 0.116663 0.449553
vt 0.116663 0.449553
vt 0.116663 0.449553
vt 0.050447 0.116663
vt 0.014612 0.296822
vt 0.296822 0.014612
vt 0.203178 0.014612
vt 0.449553 0.116663
vt 0.116663 0.449553
vt 0.383337 0.449553
vt 0.485388 0.296822
vt 0.203178 0.014612
vt 0.296822 0.014612
vt 0.296822 0.014612
vt 0.203178 0.014612
vt 0.383337 0.449553
vt 0.383337 0.449553
vt 0.383337 0.449553
vt 0.383337 0.449553
vt 0.383337 0.449553
vt 0.116663 0.449553
vt 0.116663 0.449553
vt 0.383337 0.449553
vt 0.383337 0.449553
vt 0.116663 0.449553
vt 0.383337 0.449553
vt 0.116663 0.449553
vt 0.296822 0.014612
vt 0.203178 0.014612
vt 0.203178 0.014612
vt 0.203178 0.014612
vt 0.203178 0.014612
vt 0.296822 0.014612
vt 0.296822 0.014612
vt 0.296822 0.014612
vn 0.0000 0.0456 -0.9990
vn 0.8314 0.0154 -0.5555
vn 0.9238 -0.0154 -0.3826
vn 0.9808 0.0000 0.1951
vn 0.0000 0.0000 -1.0000
vn 0.9807 0.0154 0.1951
vn 0.9238 -0.0154 0.3826
vn 0.5482 0.1625 0.8204
vn 0.8315 0.0000 -0.5556
vn 0.5555 0.0154 0.8314
vn 0.3826 -0.0154 0.9238
vn -0.9651 0.1782 0.1920
vn 0.0000 0.0052 1.0000
vn -0.5556 0.0000 0.8315
vn -0.3826 -0.0154 0.9238
vn -0.5555 0.0154 0.8314
vn 0.0000 0.1765 -0.9843
vn 0.0000 0.1694 0.9856
vn -0.9238 -0.0154 0.3826
vn -0.9807 0.0154 0.1951
vn 0.8227 0.2004 -0.5321
vn 0.9651 0.1782 0.1920
vn -0.9238 -0.0154 -0.3826
vn -0.8314 0.0154 -0.5555
vn 0.0000 -1.0000 0.0000
vn -0.5482 0.1625 0.8204
vn -0.3826 -0.0154 -0.9238
vn 0.9085 -0.0583 -0.4137
vn 0.0000 1.0000 -0.0000
vn -0.8315 0.0000 -0.5556
vn 0.5556 0.0000 0.8315
vn 0.3826 -0.0154 -0.9238
vn 0.0000 0.0000 1.0000
vn -0.7376 0.1573 -0.6567
vn -0.9808 0.0000 0.1951
vn -0.8094 0.0139 -0.5871
vn -0.9941 -0.0756 -0.0782
vn 0.0000 -0.8976 0.4408
vn 0.0000 -0.0408 -0.9992
vn 0.0000 -0.8688 -0.4951
vn 0.9937 -0.0779 -0.0806
vn 0.0000 0.0835 0.9965
vn 0.0000 0.9145 0.4047
vn 0.9953 0.0932 -0.0281
vn 0.0000 -0.9887 -0.1501
vn -0.9563 -0.1037 -0.2733
vn -0.9965 0.0839 0.0000
vn 0.0000 0.0835 -0.9965
vn 0.9965 0.0839 0.0000
vn 0.0000 0.0722 0.9974
vn -0.9962 0.0668 0.0559
vn -0.9858 -0.1016 0.1339
vn 0.9991 0.0382 -0.0156
vn 0.9853 0.0788 -0.1519
vn -0.9727 0.0099 -0.2318
vn 0.0000 0.9938 -0.1114
vn 0.0000 -0.9999 0.0169
vn 0.9966 0.0414 -0.0716
vn 0.0000 0.0901 0.9959
vn 0.0000 0.0206 -0.9998
vn -0.8753 0.0299 0.4827
vn 0.0000 -0.9987 -0.0501
vn 0.9989 0.0295 0.0363
vn 0.0000 0.9528 -0.3035
usemtl None
s off
f 1/1/1 60/2/1 8/3/1
f 8/3/2 16/4/2 9/5/2
f 16/4/3 17/6/3 9/5/3
f 31/7/4 22/8/4 20/9/4 5/10/4
f 26/11/5 23/12/5 12/13/5 21/14/5
f 16/4/6 24/15/6 17/16/6
f 24/15/7 25/17/7 17/16/7
f 63/18/8 50/19/8 56/20/8 53/21/8
f 22/8/9 26/11/9 21/14/9 20/9/9
f 24/15/10 32/22/10 25/23/10
f 32/22/11 33/24/11 25/23/11
f 51/25/12 58/26/12 45/27/12 40/28/12
f 32/22/13 36/29/13 33/30/13
f 19/31/14 18/32/14 29/33/14 28/34/14
f 33/30/15 36/29/15 41/35/15
f 41/35/16 36/29/16 44/36/16
f 54/37/17 62/38/17 37/39/17 61/40/17
f 55/41/18 63/18/18 53/21/18 48/42/18
f 41/43/19 44/36/19 49/44/19
f 49/44/20 44/36/20 52/45/20
f 59/46/21 54/37/21 61/40/21 64/47/21
f 50/19/22 59/46/22 64/47/22 56/20/22
f 49/48/23 52/45/23 57/49/23
f 57/49/24 52/45/24 60/2/24
f 1/1/25 9/50/25 17/6/25 25/17/25 33/24/25 41/35/25 49/44/25 57/49/25
f 58/26/26 55/41/26 48/42/26 45/27/26
f 1/1/27 57/51/27 60/2/27
f 20/9/28 21/14/28 54/37/28 59/46/28
f 5/10/4 20/9/4 59/46/4 50/19/4
f 37/39/29 40/28/29 45/27/29 48/42/29 53/21/29 56/20/29 64/47/29 61/40/29
f 28/34/14 29/33/14 55/41/14 58/26/14
f 23/12/30 30/52/30 13/53/30 12/13/30
f 27/54/31 31/7/31 5/10/31 4/55/31
f 1/56/32 8/3/32 9/50/32
f 18/32/33 27/54/33 4/55/33 29/33/33
f 62/38/34 51/25/34 40/28/34 37/39/34
f 30/52/35 19/31/35 28/34/35 13/53/35
f 12/13/36 13/53/36 51/25/36 62/38/36
f 29/33/33 4/55/33 63/18/33 55/41/33
f 6/57/37 7/58/37 11/59/37 15/60/37
f 13/53/35 28/34/35 58/26/35 51/25/35
f 4/55/31 5/10/31 50/19/31 63/18/31
f 52/45/35 44/36/35 39/61/35 46/62/35
f 36/29/33 32/22/33 34/63/33 42/64/33
f 32/22/31 24/15/31 47/65/31 34/63/31
f 60/2/30 52/45/30 46/62/30 35/66/30
f 44/36/14 36/29/14 42/64/14 39/61/14
f 16/4/9 8/3/9 43/67/9 38/68/9
f 8/3/5 60/2/5 35/66/5 43/67/5
f 24/15/4 16/4/4 38/68/4 47/65/4
f 46/62/35 39/61/35 19/31/35 30/52/35
f 74/69/38 73/70/38 69/71/38 70/72/38
f 34/63/31 47/65/31 31/7/31 27/54/31
f 35/66/30 46/62/30 30/52/30 23/12/30
f 39/61/14 42/64/14 18/32/14 19/31/14
f 38/68/9 43/67/9 26/11/9 22/8/9
f 43/67/5 35/66/5 23/12/5 26/11/5
f 47/65/4 38/68/4 22/8/4 31/7/4
f 14/73/39 15/60/39 11/59/39 10/74/39
f 3/75/40 6/57/40 15/60/40 14/73/40
f 2/76/41 3/75/41 14/73/41 10/74/41
f 7/58/42 2/76/42 68/77/42 67/78/42
f 84/79/43 83/80/43 2/76/43 7/58/43
f 83/80/44 82/81/44 3/75/44 2/76/44
f 82/81/45 81/82/45 6/57/45 3/75/45
f 81/82/46 84/79/46 7/58/46 6/57/46
f 67/78/29 68/77/29 66/83/29 65/84/29
f 11/59/47 7/58/47 67/78/47 65/84/47
f 10/74/48 11/59/48 65/84/48 66/83/48
f 2/76/49 10/74/49 66/83/49 68/77/49
f 70/72/50 69/71/50 71/85/50 72/86/50
f 75/87/51 72/86/51 78/88/51 79/89/51
f 75/87/52 74/69/52 70/72/52 72/86/52
f 73/70/53 76/90/53 71/85/53 69/71/53
f 34/63/54 27/54/54 76/90/54 73/70/54
f 18/32/55 42/64/55 74/69/55 75/87/55
f 27/54/56 18/32/56 75/87/56 76/90/56
f 42/64/57 34/63/57 73/70/57 74/69/57
f 80/91/29 79/89/29 78/88/29 77/92/29
f 71/85/58 76/90/58 80/91/58 77/92/58
f 72/86/59 71/85/59 77/92/59 78/88/59
f 76/90/60 75/87/60 79/89/60 80/91/60
f 12/13/61 62/38/61 84/79/61 81/82/61
f 21/14/62 12/13/62 81/82/62 82/81/62
f 54/37/63 21/14/63 82/81/63 83/80/63
f 62/38/64 54/37/64 83/80/64 84/79/64
