# Blender v3.1.2 OBJ File: ''
# www.blender.org
mtllib Stump_1.mtl
o Cylinder_Cylinder.001
v 0.243287 4.549938 0.820271
v -0.386599 4.459264 1.245486
v 0.371211 -0.091084 -0.720567
v -0.772799 4.403669 1.245486
v -1.402685 4.312995 0.820271
v 0.796426 -0.091084 -0.084188
v -1.550478 4.291720 0.069610
v -1.129601 4.352306 -0.566769
v 0.647111 -0.091084 0.666473
v -0.029797 4.510627 -0.566769
v 0.391079 4.571213 0.069610
v 0.010731 -0.091084 1.091688
v -0.379449 -0.091084 1.091688
v -0.699921 1.367444 -0.566769
v -1.120797 1.306858 0.069610
v -1.015829 -0.091084 0.666473
v -0.973005 1.328133 0.820271
v -0.343119 1.418807 1.245486
v -1.165144 -0.091084 -0.084188
v 0.043081 1.474402 1.245486
v 0.672967 1.565076 0.820271
v -0.739929 -0.091084 -0.720567
v 0.399883 1.525765 -0.566769
v 0.820759 1.586351 0.069610
vt 0.383337 0.449553
vt 0.116663 0.449553
vt 0.116663 0.449553
vt 0.383337 0.449553
vt 0.203178 0.014612
vt 0.296822 0.014612
vt 0.296822 0.014612
vt 0.203178 0.014612
vt 0.383337 0.449553
vt 0.116663 0.449553
vt 0.449553 0.116663
vt 0.485388 0.296822
vt 0.485388 0.296822
vt 0.449553 0.116663
vt 0.485388 0.296822
vt 0.014612 0.296822
vt 0.050447 0.116663
vt 0.050447 0.116663
vt 0.014612 0.296822
vt 0.296822 0.014612
vt 0.449553 0.116663
vt 0.050447 0.116663
vt 0.203178 0.014612
vt 0.014612 0.296822
vn 0.0000 0.0000 -1.0000
vn 0.0000 0.0000 1.0000
vn -0.0071 0.0997 -0.9950
vn 0.9708 0.1397 0.1951
vn 0.8313 0.0384 -0.5545
vn -0.9708 -0.1397 0.1951
vn 0.5597 -0.0888 0.8239
vn -0.5525 -0.0723 0.8304
vn -0.9810 0.0092 0.1940
vn -0.8317 0.0837 -0.5489
vn 0.0071 -0.0997 0.9950
vn 0.5499 0.0792 0.8315
vn -0.1425 0.9898 -0.0000
vn -0.5499 -0.0792 0.8315
vn 0.0000 -1.0000 0.0000
vn -0.8230 -0.1185 -0.5556
vn 0.9805 -0.0326 0.1936
vn 0.8230 0.1185 -0.5556
usemtl None
s off
f 23/1/1 14/2/1 8/3/1 10/4/1
f 18/5/2 20/6/2 2/7/2 4/8/2
f 3/9/3 22/10/3 14/2/3 23/1/3
f 21/11/4 24/12/4 11/13/4 1/14/4
f 6/15/5 3/9/5 23/1/5 24/12/5
f 15/16/6 17/17/6 5/18/6 7/19/6
f 12/20/7 9/21/7 21/11/7 20/6/7
f 16/22/8 13/23/8 18/5/8 17/17/8
f 19/24/9 16/22/9 17/17/9 15/16/9
f 22/10/10 19/24/10 15/16/10 14/2/10
f 13/23/11 12/20/11 20/6/11 18/5/11
f 20/6/12 21/11/12 1/14/12 2/7/12
f 8/3/13 7/19/13 5/18/13 4/8/13 2/7/13 1/14/13 11/13/13 10/4/13
f 17/17/14 18/5/14 4/8/14 5/18/14
f 6/15/15 9/21/15 12/20/15 13/23/15 16/22/15 19/24/15 22/10/15 3/9/15
f 14/2/16 15/16/16 7/19/16 8/3/16
f 9/21/17 6/15/17 24/12/17 21/11/17
f 24/12/18 23/1/18 10/4/18 11/13/18
